<svg xmlns="http://www.w3.org/2000/svg" width="500" height="500" viewBox="0 0 500 500">
  <defs>
    <radialGradient id="bgGrad" cx="65%" cy="35%" r="70%">
      <stop offset="0%" stop-color="#3a35c8"/>
      <stop offset="55%" stop-color="#1a1580"/>
      <stop offset="100%" stop-color="#000000"/>
    </radialGradient>
  </defs>

  <!-- Background -->
  <rect width="500" height="500" fill="url(#bgGrad)" rx="12"/>

  <!-- D letter -->
  <path d="
    M 185 210
    L 185 290
    L 205 290
    Q 240 290 240 250
    Q 240 210 205 210
    Z
    M 195 220
    L 205 220
    Q 228 220 228 250
    Q 228 280 205 280
    L 195 280
    Z
  " fill="white"/>

  <!-- B letter -->
  <path d="
    M 250 210
    L 250 290
    L 278 290
    Q 300 290 300 272
    Q 300 260 289 256
    Q 300 252 300 238
    Q 300 210 278 210
    Z
    M 260 220
    L 277 220
    Q 289 220 289 236
    Q 289 250 277 250
    L 260 250
    Z
    M 260 258
    L 278 258
    Q 290 258 290 274
    Q 290 280 278 280
    L 260 280
    Z
  " fill="white"/>
</svg>